<svg xmlns="http://www.w3.org/2000/svg" viewBox="0 0 512 512">
  <circle cx="256" cy="256" r="240" fill="#ffffff" stroke="#000000" stroke-width="10" />
  <path
    d="M256 46C140.5 46 46 140.5 46 256s94.5 210 210 210 210-94.5 210-210S371.5 46 256 46zm-69.8 360.8C133.4 382.8 96 325.1 96 256c0-2.7.1-5.4.2-8.1l54.5 21.9-17.1 82.8 52.6 54.2zm26.5 13.7l65.5-51.5 61.6 51.5c-40.6 24.4-88.3 25.4-127.1 0zm175.1-13.7l51.3-52.9-14.5-78.7 49.9-24.9c2.1 11.2 3.3 22.7 3.3 34.6 0 66.4-34.4 124.8-90 155.9zm10.9-226l-55.5 28.3-38.1-71.5 32.9-71.2c51.4 19.3 90.8 64.3 109.7 114.4h-49zm-213.5 0l-47.1.1c19.2-54.6 60.1-96.7 109.5-117L284 139.2l-40.1 68.3-58.7-26.7z"
    fill="#4f46e5" />
</svg> 